<mxfile host="app.diagrams.net" agent="Mozilla/5.0 (Windows NT 10.0; Win64; x64) AppleWebKit/537.36 (KHTML, like Gecko) Chrome/137.0.0.0 Safari/537.36" version="27.1.6">
  <diagram name="PÃ¡gina-1" id="z4dVK61h0xA8NZQ1vmAE">
    <mxGraphModel dx="1426" dy="785" grid="1" gridSize="10" guides="1" tooltips="1" connect="1" arrows="1" fold="1" page="1" pageScale="1" pageWidth="827" pageHeight="1169" math="0" shadow="0">
      <root>
        <mxCell id="0" />
        <mxCell id="1" parent="0" />
        <mxCell id="Q8J3NBIrmdFLw5TyoM4v-1" value="&lt;strong data-end=&quot;240&quot; data-start=&quot;226&quot;&gt;id_cliente&lt;/strong&gt; (PK)" style="rounded=0;whiteSpace=wrap;html=1;" vertex="1" parent="1">
          <mxGeometry x="80" y="240" width="120" height="40" as="geometry" />
        </mxCell>
        <mxCell id="Q8J3NBIrmdFLw5TyoM4v-2" value="&#xa;&lt;strong data-end=&quot;304&quot; data-start=&quot;288&quot;&gt;id_peluquero&lt;/strong&gt; (PK)&#xa;&#xa;" style="rounded=0;whiteSpace=wrap;html=1;" vertex="1" parent="1">
          <mxGeometry x="354" y="240" width="120" height="40" as="geometry" />
        </mxCell>
        <mxCell id="Q8J3NBIrmdFLw5TyoM4v-3" value="&#xa;&lt;strong data-end=&quot;355&quot; data-start=&quot;340&quot;&gt;id_servicio&lt;/strong&gt; (PK)&#xa;&#xa;" style="rounded=0;whiteSpace=wrap;html=1;" vertex="1" parent="1">
          <mxGeometry x="634" y="240" width="120" height="40" as="geometry" />
        </mxCell>
        <mxCell id="Q8J3NBIrmdFLw5TyoM4v-4" value="&#xa;&lt;strong data-end=&quot;413&quot; data-start=&quot;401&quot;&gt;id_turno&lt;/strong&gt; (PK)&#xa;&#xa;" style="rounded=0;whiteSpace=wrap;html=1;" vertex="1" parent="1">
          <mxGeometry x="354" y="480" width="120" height="40" as="geometry" />
        </mxCell>
        <mxCell id="Q8J3NBIrmdFLw5TyoM4v-5" value="" style="endArrow=none;html=1;rounded=0;entryX=0.5;entryY=1;entryDx=0;entryDy=0;" edge="1" parent="1">
          <mxGeometry width="50" height="50" relative="1" as="geometry">
            <mxPoint x="134" y="420" as="sourcePoint" />
            <mxPoint x="133.5" y="340" as="targetPoint" />
          </mxGeometry>
        </mxCell>
        <mxCell id="Q8J3NBIrmdFLw5TyoM4v-6" value="" style="endArrow=none;html=1;rounded=0;entryX=0.5;entryY=1;entryDx=0;entryDy=0;" edge="1" parent="1">
          <mxGeometry width="50" height="50" relative="1" as="geometry">
            <mxPoint x="413.5" y="420" as="sourcePoint" />
            <mxPoint x="413.5" y="340" as="targetPoint" />
          </mxGeometry>
        </mxCell>
        <mxCell id="Q8J3NBIrmdFLw5TyoM4v-7" value="" style="endArrow=none;html=1;rounded=0;entryX=0.5;entryY=1;entryDx=0;entryDy=0;" edge="1" parent="1">
          <mxGeometry width="50" height="50" relative="1" as="geometry">
            <mxPoint x="693.5" y="420" as="sourcePoint" />
            <mxPoint x="693.5" y="340" as="targetPoint" />
          </mxGeometry>
        </mxCell>
        <mxCell id="Q8J3NBIrmdFLw5TyoM4v-8" value="" style="endArrow=none;html=1;rounded=0;" edge="1" parent="1">
          <mxGeometry width="50" height="50" relative="1" as="geometry">
            <mxPoint x="694" y="420" as="sourcePoint" />
            <mxPoint x="134" y="420" as="targetPoint" />
          </mxGeometry>
        </mxCell>
        <mxCell id="Q8J3NBIrmdFLw5TyoM4v-9" value="" style="endArrow=none;html=1;rounded=0;entryX=0.5;entryY=1;entryDx=0;entryDy=0;" edge="1" parent="1">
          <mxGeometry width="50" height="50" relative="1" as="geometry">
            <mxPoint x="414" y="480" as="sourcePoint" />
            <mxPoint x="413.5" y="410" as="targetPoint" />
          </mxGeometry>
        </mxCell>
        <mxCell id="Q8J3NBIrmdFLw5TyoM4v-11" value="id_cliente&lt;div&gt;nombre&amp;nbsp;&amp;nbsp;&lt;/div&gt;&lt;div&gt;telefono&lt;/div&gt;" style="rounded=0;whiteSpace=wrap;html=1;" vertex="1" parent="1">
          <mxGeometry x="80" y="280" width="120" height="60" as="geometry" />
        </mxCell>
        <mxCell id="Q8J3NBIrmdFLw5TyoM4v-14" value="id_peluquero&lt;div&gt;nombre&lt;/div&gt;" style="rounded=0;whiteSpace=wrap;html=1;" vertex="1" parent="1">
          <mxGeometry x="354" y="280" width="120" height="60" as="geometry" />
        </mxCell>
        <mxCell id="Q8J3NBIrmdFLw5TyoM4v-17" value="id_servicio&lt;div&gt;descripcion&lt;/div&gt;&lt;div&gt;precio&lt;/div&gt;" style="rounded=0;whiteSpace=wrap;html=1;" vertex="1" parent="1">
          <mxGeometry x="634" y="280" width="120" height="60" as="geometry" />
        </mxCell>
        <mxCell id="Q8J3NBIrmdFLw5TyoM4v-20" value="&lt;div&gt;id_turno&lt;/div&gt;&lt;div&gt;fecha_hora&lt;/div&gt;&lt;div&gt;id_cliente&lt;/div&gt;&lt;div&gt;id_peluquero&lt;/div&gt;&lt;div&gt;id_servicio&lt;/div&gt;" style="rounded=0;whiteSpace=wrap;html=1;" vertex="1" parent="1">
          <mxGeometry x="354" y="520" width="120" height="90" as="geometry" />
        </mxCell>
      </root>
    </mxGraphModel>
  </diagram>
</mxfile>
